#N canvas 10 27 937 1003 12;
#X obj 4 333 line~;
#X msg 4 306 \$1 \, \$2 \$3;
#X obj 4 221 pack f f f;
#X obj 5 18 inlet;
#X obj 4 491 outlet~;
#X obj 121 481 r main-id;
#X msg 50 417 set \$1-sample;
#X obj 87 15 r grain-size;
#X obj 330 95 *;
#X obj 203 75 t f f;
#X obj 331 244 s grain-size;
#X obj 331 217 +;
#X obj 330 159 t b f;
#X msg 228 444 set \$1-hanning;
#X obj 4 444 *~;
#X obj 330 127 * 1;
#X obj 405 147 t b f;
#X obj 199 423 tabread4~;
#X obj 4 396 tabread4~;
#X text 3 -6 grain-starpoint;
#X text 201 12 grain-dur;
#X text 360 19 ms-to-samps;
#X text 468 22 TODO: preferiria poner esta cuenta fuera del grano;
#X text 404 99 grain-pitch-ratio;
#X obj 203 36 inlet;
#X obj 363 45 inlet;
#X obj 405 122 inlet;
#X obj 843 -6 inlet;
#X obj 198 353 *~;
#X msg 476 410 1 \$1;
#X obj 476 435 /;
#X obj 476 460 * 515;
#X obj 476 376 -;
#X msg 476 351 \$2 \$1;
#X obj 115 346 -~;
#X obj 4 264 t l l;
#X obj 5 50 t f f f;
#X connect 0 0 18 0;
#X connect 0 0 34 0;
#X connect 1 0 0 0;
#X connect 2 0 35 0;
#X connect 3 0 36 0;
#X connect 5 0 6 0;
#X connect 5 0 13 0;
#X connect 6 0 18 0;
#X connect 7 0 2 1;
#X connect 8 0 15 0;
#X connect 9 0 2 2;
#X connect 9 1 8 0;
#X connect 11 0 10 0;
#X connect 12 0 11 0;
#X connect 12 1 11 1;
#X connect 13 0 17 0;
#X connect 14 0 4 0;
#X connect 15 0 12 0;
#X connect 16 0 15 0;
#X connect 16 1 15 1;
#X connect 17 0 14 1;
#X connect 18 0 14 0;
#X connect 24 0 9 0;
#X connect 25 0 8 1;
#X connect 26 0 16 0;
#X connect 28 0 17 0;
#X connect 29 0 30 0;
#X connect 30 0 31 0;
#X connect 31 0 28 1;
#X connect 32 0 29 0;
#X connect 33 0 32 0;
#X connect 34 0 28 0;
#X connect 35 0 1 0;
#X connect 35 1 33 0;
#X connect 36 0 2 0;
#X connect 36 1 11 0;
#X connect 36 2 34 1;
