#N canvas 965 27 937 125 12;
#X obj 107 325 +~;
#X obj 105 427 *~;
#X obj 126 201 samphold~;
#X obj 105 452 outlet~;
#X obj 815 199 inlet;
#X obj 255 357 sig~ 1;
#X obj 357 363 cos~;
#X obj 255 382 -~;
#X obj 255 407 *~ 0.5;
#X obj 339 190 r main-id;
#X floatatom 339 215 5 0 0 0 - - - 0;
#X msg 339 289 set \$1-sample;
#X obj 561 311 +~;
#X obj 559 413 *~;
#X obj 580 187 samphold~;
#X obj 559 458 outlet~;
#X obj 709 343 sig~ 1;
#X obj 781 345 cos~;
#X obj 709 368 -~;
#X obj 709 393 *~ 0.5;
#X obj 8 7 inlet~;
#X obj 9 91 s~ g1;
#X obj 108 176 r~ g1;
#X obj 654 150 r~ g1;
#X obj 104 36 phasor~;
#X obj 104 8 inlet;
#X obj 104 61 s~ p;
#X obj 185 132 r~ p;
#X obj 90 239 r~ p;
#X obj 357 332 r~ p;
#X obj 561 54 r~ p;
#X obj 561 104 wrap~;
#X obj 106 357 tabread4~;
#X obj 560 343 tabread4~;
#X obj 255 446 tabwrite~ testing;
#X obj 374 426 r test-env;
#X obj 107 276 *~;
#X obj 561 262 *~;
#X obj 647 842 outlet~;
#X obj 648 699 +~;
#X obj 646 801 *~;
#X obj 667 575 samphold~;
#X obj 796 731 sig~ 1;
#X obj 868 733 cos~;
#X obj 796 756 -~;
#X obj 796 781 *~ 0.5;
#X obj 741 538 r~ g1;
#X obj 648 442 r~ p;
#X obj 648 492 wrap~;
#X obj 647 731 tabread4~;
#X obj 648 650 *~;
#X msg 417 197 bang;
#X obj 890 648 outlet~;
#X obj 891 505 +~;
#X obj 889 607 *~;
#X obj 910 381 samphold~;
#X obj 1039 537 sig~ 1;
#X obj 1111 539 cos~;
#X obj 1039 562 -~;
#X obj 1039 587 *~ 0.5;
#X obj 984 344 r~ g1;
#X obj 891 248 r~ p;
#X obj 891 298 wrap~;
#X obj 890 537 tabread4~;
#X obj 891 456 *~;
#X obj 561 79 +~ 0.25;
#X obj 648 467 +~ 0.5;
#X obj 891 273 +~ 0.75;
#X connect 0 0 32 0;
#X connect 1 0 3 0;
#X connect 1 0 34 0;
#X connect 2 0 0 1;
#X connect 4 0 36 1;
#X connect 4 0 37 1;
#X connect 4 0 50 1;
#X connect 4 0 64 1;
#X connect 5 0 7 0;
#X connect 6 0 7 1;
#X connect 7 0 8 0;
#X connect 8 0 1 1;
#X connect 9 0 10 0;
#X connect 10 0 11 0;
#X connect 11 0 32 0;
#X connect 11 0 33 0;
#X connect 11 0 49 0;
#X connect 11 0 63 0;
#X connect 12 0 33 0;
#X connect 13 0 15 0;
#X connect 14 0 12 1;
#X connect 16 0 18 0;
#X connect 17 0 18 1;
#X connect 18 0 19 0;
#X connect 19 0 13 1;
#X connect 20 0 21 0;
#X connect 22 0 2 0;
#X connect 23 0 14 0;
#X connect 24 0 26 0;
#X connect 25 0 24 0;
#X connect 27 0 2 1;
#X connect 28 0 36 0;
#X connect 29 0 6 0;
#X connect 30 0 65 0;
#X connect 31 0 14 1;
#X connect 31 0 17 0;
#X connect 31 0 37 0;
#X connect 32 0 1 0;
#X connect 33 0 13 0;
#X connect 35 0 34 0;
#X connect 36 0 0 0;
#X connect 37 0 12 0;
#X connect 39 0 49 0;
#X connect 40 0 38 0;
#X connect 41 0 39 1;
#X connect 42 0 44 0;
#X connect 43 0 44 1;
#X connect 44 0 45 0;
#X connect 45 0 40 1;
#X connect 46 0 41 0;
#X connect 47 0 66 0;
#X connect 48 0 41 1;
#X connect 48 0 43 0;
#X connect 48 0 50 0;
#X connect 49 0 40 0;
#X connect 50 0 39 0;
#X connect 51 0 10 0;
#X connect 53 0 63 0;
#X connect 54 0 52 0;
#X connect 55 0 53 1;
#X connect 56 0 58 0;
#X connect 57 0 58 1;
#X connect 58 0 59 0;
#X connect 59 0 54 1;
#X connect 60 0 55 0;
#X connect 61 0 67 0;
#X connect 62 0 55 1;
#X connect 62 0 57 0;
#X connect 62 0 64 0;
#X connect 63 0 54 0;
#X connect 64 0 53 0;
#X connect 65 0 31 0;
#X connect 66 0 48 0;
#X connect 67 0 62 0;
