#N canvas 10 27 937 1003 12;
#X obj 4 396 tabread4~ \$0-sample;
#X obj 4 333 line~;
#X msg 4 306 \$1 \, \$2 \$3;
#X obj 4 221 pack f f f;
#X obj 5 18 inlet;
#X obj 4 491 outlet~;
#X obj 100 258 r main-id;
#X msg 100 283 set \$1-sample;
#X obj 181 86 r grain-dur;
#X obj 87 15 r grain-size;
#X obj 308 145 *;
#X obj 341 95 r ms-to-samps;
#X obj 181 125 t f f;
#X obj 357 337 s grain-size;
#X obj 357 310 +;
#X obj 308 209 t b f;
#X obj 5 50 t f f;
#X msg 152 310 set \$1-hanning;
#X obj 4 444 *~;
#X obj 258 368 line~;
#X obj 4 264 t l l;
#X obj 383 172 r grain-pitch-ratio;
#X obj 308 177 * 1;
#X obj 383 197 t b f;
#X obj 199 420 tabread4~;
#X msg 258 339 0 \, 515 \$3;
#X obj 198 353 *~ 515;
#X obj 62 118 * 1;
#X obj 87 67 r grain-speed;
#X connect 0 0 18 0;
#X connect 1 0 0 0;
#X connect 1 0 26 0;
#X connect 2 0 1 0;
#X connect 3 0 20 0;
#X connect 4 0 16 0;
#X connect 6 0 7 0;
#X connect 6 0 17 0;
#X connect 7 0 0 0;
#X connect 8 0 12 0;
#X connect 9 0 27 0;
#X connect 10 0 22 0;
#X connect 11 0 10 1;
#X connect 12 0 3 2;
#X connect 12 1 10 0;
#X connect 14 0 13 0;
#X connect 15 0 14 0;
#X connect 15 1 14 1;
#X connect 16 0 3 0;
#X connect 16 1 14 0;
#X connect 17 0 24 0;
#X connect 18 0 5 0;
#X connect 19 0 24 0;
#X connect 20 0 2 0;
#X connect 20 1 25 0;
#X connect 21 0 23 0;
#X connect 22 0 15 0;
#X connect 23 0 22 0;
#X connect 23 1 22 1;
#X connect 24 0 18 1;
#X connect 25 0 19 0;
#X connect 27 0 3 1;
#X connect 28 0 27 1;
