#N canvas 10 27 937 1003 12;
#X obj 5 393 line~;
#X msg 5 348 \$1 \, \$2 \$3;
#X obj 5 221 pack f f f, f 19;
#X obj 5 18 inlet;
#X obj 5 631 outlet~;
#X msg 20 509 set \$1-sample;
#X obj 221 105 *;
#X obj 134 85 t f f;
#X obj 221 227 +;
#X obj 221 169 t b f;
#X msg 236 535 set \$1-hanning;
#X obj 5 584 *~;
#X obj 221 137 * 1;
#X obj 296 117 t b f;
#X obj 199 563 tabread4~;
#X obj 5 536 tabread4~;
#X text 3 -6 grain-starpoint;
#X text 132 22 grain-dur;
#X text 236 29 ms-to-samps;
#X text 295 69 grain-pitch-ratio;
#X obj 134 46 inlet;
#X obj 239 55 inlet;
#X obj 296 92 inlet;
#X obj 198 443 *~;
#X msg 236 373 1 \$1;
#X obj 236 398 /;
#X obj 236 423 * 515;
#X obj 236 349 -;
#X msg 236 324 \$2 \$1;
#X obj 198 412 -~;
#X obj 5 304 t l l;
#X obj 5 50 t f f f;
#X obj 221 254 s \$0-grain-size;
#X obj 70 166 r \$0-grain-size;
#X obj 546 440 inlet;
#X text 283 157 TODO: preferiria poner esta cuenta fuera del grano \, tal vez?;
#X obj 197 601 cnv 20 456 30 empty empty TODO 5 12 0 12 #ffe3c6 #404040 0;
#X obj 570 605 threshold~;
#X text 237 605 [Mandar un bang al final del hanning window con;
#X connect 0 0 15 0;
#X connect 0 0 29 0;
#X connect 1 0 0 0;
#X connect 2 0 30 0;
#X connect 3 0 31 0;
#X connect 5 0 15 0;
#X connect 6 0 12 0;
#X connect 7 0 2 2;
#X connect 7 1 6 0;
#X connect 8 0 32 0;
#X connect 9 0 8 0;
#X connect 9 1 8 1;
#X connect 10 0 14 0;
#X connect 11 0 4 0;
#X connect 12 0 9 0;
#X connect 13 0 12 0;
#X connect 13 1 12 1;
#X connect 14 0 11 1;
#X connect 15 0 11 0;
#X connect 20 0 7 0;
#X connect 21 0 6 1;
#X connect 22 0 13 0;
#X connect 23 0 14 0;
#X connect 24 0 25 0;
#X connect 25 0 26 0;
#X connect 26 0 23 1;
#X connect 27 0 24 0;
#X connect 28 0 27 0;
#X connect 29 0 23 0;
#X connect 30 0 1 0;
#X connect 30 1 28 0;
#X connect 31 0 2 0;
#X connect 31 1 8 0;
#X connect 31 2 29 1;
#X connect 33 0 2 1;
#X connect 34 0 5 0;
#X connect 34 0 10 0;
