#N canvas 965 27 937 160 12;
#X obj 5 161 +~;
#X obj 3 263 *~;
#X obj 158 194 tabread4~ hanning;
#X obj 24 37 samphold~;
#X obj 4 1 inlet~;
#X obj 84 -1 inlet~;
#X obj 3 288 outlet~;
#X obj 148 -1 inlet;
#X obj 5 112 *~ 256;
#X obj 4 193 tabread4~ \$0-sample;
#X connect 0 0 9 0;
#X connect 1 0 6 0;
#X connect 2 0 1 1;
#X connect 3 0 0 1;
#X connect 4 0 3 1;
#X connect 4 0 8 0;
#X connect 5 0 3 0;
#X connect 7 0 8 1;
#X connect 8 0 0 0;
#X connect 8 0 2 0;
#X connect 9 0 1 0;
