#N canvas 10 27 937 1003 12;
#X obj 58 3 inlet;
#X obj 58 64 t f b;
#X obj 90 101 f \$1;
#X obj 58 133 *;
#X floatatom 90 134 5 0 0 0 - - - 0;
#X obj 247 10 loadbang;
#X msg 247 46 1;
#X obj 247 71 switch~;
#X msg 146 154 0;
#X obj 57 365 dac~;
#X obj 398 9 inlet;
#X obj 146 100 t b f;
#X obj 146 125 del;
#X obj 146 179 bng 20 250 50 0 empty empty empty 0 -10 0 12 #fcfcfc #000000 #000000;
#X obj 146 75 +;
#X obj -61 50 inlet~;
#X obj 548 19 inlet;
#X obj 57 340 *~ 0;
#X obj 58 214 delread~ \$0-d 500;
#X obj 58 34 t f f, f 20;
#X obj -59 291 delwrite~ \$0-d 500;
#X connect 0 0 19 0;
#X connect 1 0 3 0;
#X connect 1 1 2 0;
#X connect 2 0 3 1;
#X connect 3 0 4 0;
#X connect 3 0 14 0;
#X connect 3 0 18 0;
#X connect 5 0 6 0;
#X connect 6 0 7 0;
#X connect 8 0 7 0;
#X connect 8 0 13 0;
#X connect 10 0 7 0;
#X connect 11 0 12 0;
#X connect 11 1 12 1;
#X connect 12 0 8 0;
#X connect 14 0 11 0;
#X connect 15 0 20 0;
#X connect 16 0 17 1;
#X connect 17 0 9 0;
#X connect 17 0 9 1;
#X connect 18 0 17 0;
#X connect 19 0 1 0;
#X connect 19 1 14 1;
