#N canvas 10 27 937 1003 12;
#X obj 4 396 tabread4~ \$0-sample;
#X obj 4 333 line~;
#X msg 4 306 \$1 \, \$2 \$3;
#X obj 4 221 pack f f f;
#X obj 5 18 inlet;
#X obj 4 491 outlet~;
#X obj 100 258 r main-id;
#X msg 100 283 set \$1-sample;
#X obj 181 86 r grain-dur;
#X obj 87 15 r grain-size;
#X obj 308 145 *;
#X obj 326 96 r ms-to-samps;
#X obj 181 125 t f f;
#X obj 357 297 s grain-size;
#X obj 357 270 +;
#X obj 308 169 t b f;
#X obj 5 50 t f f;
#X obj 4 264 t l l;
#X connect 0 0 5 0;
#X connect 1 0 0 0;
#X connect 2 0 1 0;
#X connect 3 0 17 0;
#X connect 4 0 16 0;
#X connect 6 0 7 0;
#X connect 7 0 0 0;
#X connect 8 0 12 0;
#X connect 9 0 3 1;
#X connect 10 0 15 0;
#X connect 11 0 10 1;
#X connect 12 0 3 2;
#X connect 12 1 10 0;
#X connect 14 0 13 0;
#X connect 15 0 14 0;
#X connect 15 1 14 1;
#X connect 16 0 3 0;
#X connect 16 1 14 0;
#X connect 17 0 2 0;
