#N canvas 10 27 937 1003 12;
#X obj 268 8 inlet;
#X obj 349 103 switch~;
#X obj 174 389 dac~;
#X obj -61 50 inlet~;
#X obj 665 43 inlet;
#X obj 174 364 *~ 0;
#X obj -59 291 delwrite~ \$0-d 500;
#X msg 268 82 1;
#X obj 300 178 del, f 5;
#X obj 300 118 t b f;
#X msg 300 203 0;
#X obj -54 83 r main-id;
#X msg -54 111 set \$1-sample;
#X obj -62 167 tabread4~;
#X obj 175 238 delread~ \$0-d 0;
#X obj 175 6 inlet;
#X obj 268 49 t b f;
#X obj 175 37 t f f;
#X obj 227 36 +;
#X obj 12 11 inlet~;
#X obj -60 229 *~;
#X obj -29 374 sig~ 1;
#X obj 73 380 cos~;
#X obj -29 399 -~;
#X obj -29 424 *~ 0.5;
#X connect 0 0 18 1;
#X connect 3 0 13 0;
#X connect 4 0 5 1;
#X connect 5 0 2 0;
#X connect 5 0 2 1;
#X connect 7 0 1 0;
#X connect 8 0 10 0;
#X connect 9 0 8 0;
#X connect 9 1 8 1;
#X connect 10 0 1 0;
#X connect 11 0 12 0;
#X connect 12 0 13 0;
#X connect 13 0 20 0;
#X connect 14 0 5 0;
#X connect 15 0 17 0;
#X connect 16 0 7 0;
#X connect 16 1 9 0;
#X connect 17 0 14 0;
#X connect 17 1 18 0;
#X connect 18 0 16 0;
#X connect 19 0 22 0;
#X connect 20 0 6 0;
#X connect 21 0 23 0;
#X connect 22 0 23 1;
#X connect 23 0 24 0;
#X connect 24 0 20 1;
