#N canvas 10 27 937 1003 12;
#X msg 4 -131 \; pd dsp \$1;
#X obj 4 -158 tgl 19 0 empty empty empty 17 7 0 10 #dfdfdf #000000 #000000 0 1;
#X text 29 -159 DSP On/Off;
#X obj 21 944 output~;
#X obj 3 -11 cnv 20 142 150 empty empty Parametros: 20 12 0 12 #e3c6ff #404040 0;
#X text 8 10 - grain-dur;
#X text 6 47 - grain-density;
#X text 4 85 - grain-startpont;
#X text 4 102 - grain-offset?;
#X text 7 30 - grain-dur-mod;
#X text 5 66 - grain-pitch-ratio;
#X text 4 118 - sample-speed;
#N canvas 10 27 937 1003 refes 0;
#X obj 27 389 pdcontrol;
#X msg 32 225 browse http://www.pd-tutorial.com/english/ch03s04.html;
#X msg 44 255 browse http://www.pd-tutorial.com/english/ch03s07.html;
#X obj 109 128 bng 20 250 50 0 empty empty http://www.pd-tutorial.com/english/ch03s04.html 25 15 1 12 #e3c6ff #000000 #000000;
#X obj 109 153 bng 20 250 50 0 empty empty http://www.pd-tutorial.com/english/ch03s07.html 25 15 1 12 #e3c6ff #000000 #000000;
#X msg 52 288 browse http://granularsynthesis.com/hthesis/hthesis.html;
#X obj 109 179 bng 20 250 50 0 empty empty http://granularsynthesis.com/hthesis/hthesis.html 25 15 1 12 #e3c6ff #000000 #000000;
#X connect 1 0 0 0;
#X connect 2 0 0 0;
#X connect 3 0 1 0;
#X connect 4 0 2 0;
#X connect 5 0 0 0;
#X connect 6 0 5 0;
#X coords 0 -1 1 1 323 110 1 100 100;
#X restore 91 -131 pd refes;
#X obj 238 255 tgl 20 0 empty empty "off"/on 0 -10 0 12 #e3c6ff #000000 #000000 0 1;
#X obj 370 154 hsl 50 20 -1 1 0 0 empty empty sample-speed -2 -10 0 12 #e3c6ff #000000 #000000 0 1;
#X obj 499 188 hsl 50 20 0 1 0 0 empty empty grain-startpoint -2 -10 0 12 #e3c6ff #000000 #000000 0 1;
#X obj 718 344 hsl 50 20 -1 1 0 0 empty empty grain-dur-mod -2 -10 0 12 #e3c6ff #000000 #000000 0 1;
#X obj 303 216 hradio 20 1 0 2 empty empty sampler/granulator 0 -10 0 12 #e3c6ff #000000 #000000 0;
#X obj 435 75 hsl 50 20 -1 1 0 0 empty empty grain-pitch-ratio -2 -10 0 12 #e3c6ff #000000 #000000 0 1;
#X msg 623 198 3;
#X obj 561 241 nbx 5 18 0.1 1e+37 0 0 empty empty grain-density\ (g/s\;\ grains\ per\ second) 0 -10 0 12 #e3c6ff #000000 #000000 0 256;
#X msg 174 195 1;
#X msg 507 78 0;
#X msg 773 344 0;
#X msg 323 65 0;
#X obj 174 23 t b b b b b, f 86;
#X obj 4 -57 s \$0-init;
#X obj 4 -85 loadbang;
#X obj 174 -11 r \$0-init;
#X obj 174 409 output~;
#X obj 66 -83 bng 20 250 50 0 empty empty empty 0 -10 0 12 #fcfcfc #000000 #000000;
#X msg 238 280 this \$1;
#X msg 303 241 this \$1;
#X msg 367 179 this \$1;
#X msg 432 100 this \$1;
#X msg 496 213 this \$1;
#X msg 715 369 this \$1;
#X msg 561 264 this \$1;
#X obj 147 267 openpanel;
#X obj 112 219 bng 20 250 50 0 empty empty empty 0 -10 0 12 #fcfcfc #000000 #000000;
#X msg 147 292 this \$1;
#X obj 174 364 clone stream 2, f 65;
#X obj 427 -96 cnv 20 280 30 empty empty TODO 5 12 0 12 #ffe3c6 #404040 0;
#X obj 426 -58 cnv 20 450 30 empty empty TODO 5 12 0 12 #ffe3c6 #404040 0;
#X text 463 -91 [Mandar los inputs como una lista;
#X text 462 -53 [Que puedas elegir entre this/all y especificar que stream;
#X obj 427 -136 cnv 20 280 30 empty empty TODO 5 12 0 12 #ffe3c6 #404040 0;
#X text 463 -131 [Añadir refes;
#X obj 87 317 hradio 20 1 0 2 empty empty empty 0 -10 0 12 #fcfcfc #000000 #000000 0;
#X msg 87 344 set \$1;
#X connect 1 0 0 0;
#X connect 13 0 31 0;
#X connect 14 0 33 0;
#X connect 15 0 35 0;
#X connect 16 0 36 0;
#X connect 17 0 32 0;
#X connect 18 0 34 0;
#X connect 19 0 20 0;
#X connect 20 0 37 0;
#X connect 21 0 13 0;
#X connect 22 0 18 0;
#X connect 23 0 16 0;
#X connect 24 0 14 0;
#X connect 25 0 21 0;
#X connect 25 1 24 0;
#X connect 25 2 22 0;
#X connect 25 3 19 0;
#X connect 25 4 23 0;
#X connect 27 0 26 0;
#X connect 28 0 25 0;
#X connect 30 0 26 0;
#X connect 31 0 41 1;
#X connect 32 0 41 2;
#X connect 33 0 41 3;
#X connect 34 0 41 4;
#X connect 35 0 41 5;
#X connect 36 0 41 7;
#X connect 37 0 41 6;
#X connect 38 0 40 0;
#X connect 39 0 38 0;
#X connect 40 0 41 0;
#X connect 41 0 29 0;
#X connect 41 0 29 1;
#X connect 48 0 49 0;
#X connect 49 0 41 0;
#X connect 49 0 41 1;
#X connect 49 0 41 2;
#X connect 49 0 41 3;
#X connect 49 0 41 4;
#X connect 49 0 41 5;
#X connect 49 0 41 6;
#X connect 49 0 41 7;
