#N canvas 10 27 937 1003 12;
#X msg 4 -131 \; pd dsp \$1;
#X obj 4 -158 tgl 19 0 empty empty empty 17 7 0 10 #dfdfdf #000000 #000000 0 1;
#X text 29 -159 DSP On/Off;
#X obj 3 -11 cnv 20 142 140 empty empty Parametros: 20 12 0 12 #e3c6ff #404040 0;
#X text 8 10 - grain-dur;
#X text 6 47 - grain-density;
#X text 4 85 - grain-startpont;
#X text 7 30 - grain-dur-mod;
#X text 5 66 - grain-pitch-ratio;
#N canvas 10 27 937 1003 refes 0;
#X obj 27 389 pdcontrol;
#X msg 32 225 browse http://www.pd-tutorial.com/english/ch03s04.html;
#X msg 44 255 browse http://www.pd-tutorial.com/english/ch03s07.html;
#X obj 109 128 bng 20 250 50 0 empty empty http://www.pd-tutorial.com/english/ch03s04.html 25 15 1 12 #e3c6ff #000000 #000000;
#X obj 109 153 bng 20 250 50 0 empty empty http://www.pd-tutorial.com/english/ch03s07.html 25 15 1 12 #e3c6ff #000000 #000000;
#X msg 52 288 browse http://granularsynthesis.com/hthesis/hthesis.html;
#X obj 109 179 bng 20 250 50 0 empty empty http://granularsynthesis.com/hthesis/hthesis.html 25 15 1 12 #e3c6ff #000000 #000000;
#X connect 1 0 0 0;
#X connect 2 0 0 0;
#X connect 3 0 1 0;
#X connect 4 0 2 0;
#X connect 5 0 0 0;
#X connect 6 0 5 0;
#X coords 0 -1 1 1 323 110 1 100 100;
#X restore 91 -131 pd refes;
#X obj 238 395 tgl 20 0 empty empty "off"/on 0 -10 0 12 #c6ffc7 #000000 #000000 0 1;
#X obj 370 154 hsl 50 20 0 1 0 0 empty empty sample-speed -2 -10 0 12 #e3c6ff #000000 #000000 0 1;
#X obj 499 148 hsl 50 20 0 1 0 0 empty empty grain-startpoint -2 -10 0 12 #e3c6ff #000000 #000000 0 1;
#X obj 718 414 hsl 50 20 0 1 0 0 empty empty grain-dur-mod -2 -10 0 12 #e3c6ff #000000 #000000 0 1;
#X obj 303 306 hradio 20 1 0 2 empty empty sampler/granulator 0 -10 0 12 #c6ffc7 #000000 #000000 0;
#X obj 435 325 hsl 50 20 0 1 0 0 empty empty grain-pitch-ratio -2 -10 0 12 #e3c6ff #000000 #000000 0 1;
#X msg 623 198 3;
#X obj 561 301 nbx 5 18 0.1 1e+37 0 0 empty empty grain-density\ (g/s\;\ grains\ per\ second) 0 -10 0 12 #e3c6ff #000000 #000000 0 256;
#X msg 174 195 1;
#X obj 174 23 t b b b b b, f 86;
#X obj 4 -57 s \$0-init;
#X obj 4 -85 loadbang;
#X obj 174 -11 r \$0-init;
#X obj 174 619 output~;
#X obj 66 -83 bng 20 250 50 0 empty empty empty 0 -10 0 12 #fcfcfc #000000 #000000;
#X obj 46 414 openpanel;
#X obj 46 355 bng 20 250 50 0 empty empty empty 0 -10 0 12 #c6ffc7 #000000 #000000;
#X obj 174 524 clone stream 2, f 65;
#X obj 46 439 stream-input 0;
#X obj 238 420 stream-input 1;
#X obj 303 331 stream-input 2;
#X obj 367 179 stream-input 3;
#X obj 432 350 stream-input 4;
#X obj 496 173 stream-input 5;
#X obj 561 324 stream-input 6;
#X obj 715 439 stream-input 7;
#X msg 507 78 0.5;
#X msg 323 65 0.5;
#X msg 773 414 0.5;
#X text 4 104 - sample-speed;
#X connect 1 0 0 0;
#X connect 10 0 29 0;
#X connect 11 0 31 0;
#X connect 12 0 33 0;
#X connect 13 0 35 0;
#X connect 14 0 30 0;
#X connect 15 0 32 0;
#X connect 16 0 17 0;
#X connect 17 0 34 0;
#X connect 18 0 10 0;
#X connect 19 0 18 0;
#X connect 19 1 37 0;
#X connect 19 2 36 0;
#X connect 19 3 16 0;
#X connect 19 4 38 0;
#X connect 21 0 20 0;
#X connect 22 0 19 0;
#X connect 24 0 20 0;
#X connect 25 0 28 0;
#X connect 26 0 25 0;
#X connect 27 0 23 0;
#X connect 27 0 23 1;
#X connect 28 0 27 0;
#X connect 29 0 27 1;
#X connect 30 0 27 2;
#X connect 31 0 27 3;
#X connect 32 0 27 4;
#X connect 33 0 27 5;
#X connect 34 0 27 6;
#X connect 35 0 27 7;
#X connect 36 0 15 0;
#X connect 37 0 11 0;
#X connect 38 0 13 0;
