#N canvas 10 27 937 1003 12;
#X obj 571 176 soundfiler, f 18;
#X obj 571 327 phasor~;
#X obj 571 410 *~, f 12;
#X obj 571 201 t f f, f 12;
#X obj 416 160 *;
#X obj 416 44 vsl 20 100 0.5 2 1 0 empty empty speed\ (pitch?) 0 -9 0 12 #fcfcfc #000000 #000000 0 1;
#X msg 361 5 1;
#X obj 91 46 hsl 170 20 0 1 0 0 empty empty empty -2 -10 0 12 #fcfcfc #000000 #000000 0 1;
#X obj 571 359 *~ 1;
#X obj 571 385 +~ 0;
#X obj 88 141 -;
#X obj 91 75 hsl 170 20 0 1 0 0 empty empty empty -2 -10 0 12 #fcfcfc #000000 #000000 0 1;
#X floatatom 88 186 5 0 0 0 - - - 0;
#X obj 577 474 expr 1 / $f1;
#X obj 416 234 *;
#X obj 127 112 t b f;
#X obj 416 187 t b f;
#X obj 571 245 expr $f2 / $f1 \;, f 18;
#X msg 571 117 read -resize ./sample.wav \$1-sample;
#X obj 571 87 r main-id;
#X obj -41 66 s sample-start;
#X obj 677 365 r sample-start;
#X obj 88 210 s sample-dur-coefficient;
#X obj 577 435 r sample-dur-coefficient;
#X obj 88 164 t f f, f 35;
#X obj 330 201 < 0;
#X msg 330 251 1 \$1;
#X obj 330 276 -;
#X obj 330 226 * 2;
#X floatatom 286 274 5 0 0 0 - - - 0;
#X obj 416 297 * 1;
#X msg 361 31 0;
#X msg -48 -140 \; pd dsp \$1;
#X obj -48 -167 tgl 19 0 empty empty empty 17 7 0 10 #dfdfdf #000000 #000000 0 1;
#X text -23 -168 DSP On/Off;
#N canvas 10 27 937 1003 (subpatch) 0;
#X array \$0-sample 529200 float 2;
#X coords 0 1 529200 -1 200 140 1 0 0;
#X restore 87 -99 graph;
#X obj -48 -16 \$0;
#X obj -48 -94 loadbang;
#X msg 12 -36 bang;
#X floatatom -48 9 5 0 0 0 - - - 0;
#X obj -48 33 s main-id;
#X obj -48 -72 t b b, f 9;
#X obj 12 -11 s init;
#X obj 361 -28 r init;
#X text 175 113 grain-duration?;
#N canvas 10 27 937 1003 grain-density 0;
#X obj 274 595 snapshot~;
#X obj 362 541 bng 20 250 50 0 empty empty empty 0 -10 0 12 #fcfcfc #000000 #000000;
#X obj 362 446 tgl 20 0 empty empty empty 0 -10 0 12 #fcfcfc #000000 #000000 0 1;
#X text 400 381 grain density;
#X obj 362 516 metro;
#X obj 394 467 /;
#X floatatom 394 492 5 0 0 0 - - - 0;
#X floatatom 394 411 5 0 0 0 gs/s\ (grains\ per\ second) - - 0;
#X msg 394 442 1000 \$1;
#X obj 274 620 outlet;
#X obj 275 277 inlet;
#X text 322 276 phasor;
#X connect 0 0 9 0;
#X connect 1 0 0 0;
#X connect 2 0 4 0;
#X connect 4 0 1 0;
#X connect 5 0 6 0;
#X connect 6 0 4 1;
#X connect 7 0 8 0;
#X connect 8 0 5 0;
#X connect 10 0 0 0;
#X restore 52 431 pd grain-density with metro;
#X msg 594 611 all \$1;
#X text 705 245 sample-rate / sample-size;
#X obj 66 622 switch~;
#X msg 70 581 1;
#X msg 903 650 all \$1;
#X obj 903 532 hradio 20 1 0 2 empty empty empty 0 -10 0 12 #fcfcfc #000000 #000000 0;
#X obj 903 590 tgl 20 0 empty empty empty 0 -10 0 12 #fcfcfc #000000 #000000 0 1;
#X obj 930 593 tgl 20 0 empty empty empty 0 -10 0 12 #fcfcfc #000000 #000000 0 1;
#X obj 903 557 sel 0 1;
#X msg 930 623 this \$1;
#X msg 766 697 set \$1;
#X obj 766 665 hradio 20 1 0 3 empty empty empty 0 -10 0 12 #fcfcfc #000000 #000000 0;
#X obj 666 562 hradio 20 1 0 3 empty empty empty 0 -10 0 12 #fcfcfc #000000 #000000 0;
#X msg 666 593 vis \$1 1;
#X msg 791 516 1 \$1;
#X floatatom 786 488 5 0 0 0 - - - 0;
#X obj 791 541 /;
#X obj 791 566 *;
#X obj 840 444 vsl 20 70 0 1 0 0 empty empty empty 0 -9 0 12 #fcfcfc #000000 #000000 0 1;
#X obj 840 522 t b f;
#X msg 791 591 all \$1;
#X obj 380 557 tabread4~ \$0-sample;
#X floatatom 590 508 3 0 0 0 - - - 0;
#X msg 591 531 set \$1;
#X msg 591 556 261;
#X obj 522 668 clone grain-reader2 3;
#X connect 0 0 3 0;
#X connect 0 1 17 1;
#X connect 1 0 8 0;
#X connect 2 0 67 0;
#X connect 3 0 17 0;
#X connect 3 1 2 1;
#X connect 4 0 16 0;
#X connect 5 0 4 0;
#X connect 6 0 5 0;
#X connect 7 0 20 0;
#X connect 7 0 15 0;
#X connect 8 0 9 0;
#X connect 9 0 2 0;
#X connect 10 0 24 0;
#X connect 11 0 10 0;
#X connect 12 0 22 0;
#X connect 13 0 14 0;
#X connect 14 0 30 0;
#X connect 15 0 10 0;
#X connect 15 1 10 1;
#X connect 16 0 14 0;
#X connect 16 1 14 1;
#X connect 17 0 1 0;
#X connect 17 0 4 1;
#X connect 18 0 0 0;
#X connect 19 0 18 0;
#X connect 21 0 9 1;
#X connect 23 0 13 0;
#X connect 23 0 8 1;
#X connect 24 0 12 0;
#X connect 24 1 25 0;
#X connect 25 0 28 0;
#X connect 26 0 27 0;
#X connect 27 0 29 0;
#X connect 27 0 30 1;
#X connect 28 0 26 0;
#X connect 30 0 1 0;
#X connect 31 0 5 0;
#X connect 33 0 32 0;
#X connect 36 0 39 0;
#X connect 37 0 41 0;
#X connect 38 0 36 0;
#X connect 38 0 42 0;
#X connect 39 0 40 0;
#X connect 41 0 36 0;
#X connect 41 1 38 0;
#X connect 43 0 6 0;
#X connect 46 0 71 1;
#X connect 49 0 48 0;
#X connect 50 0 71 2;
#X connect 51 0 54 0;
#X connect 52 0 50 0;
#X connect 53 0 55 0;
#X connect 54 0 52 0;
#X connect 54 1 53 0;
#X connect 55 0 71 2;
#X connect 56 0 71 2;
#X connect 57 0 56 0;
#X connect 58 0 59 0;
#X connect 59 0 71 2;
#X connect 60 0 62 0;
#X connect 61 0 60 0;
#X connect 62 0 63 0;
#X connect 63 0 66 0;
#X connect 64 0 65 0;
#X connect 65 0 63 0;
#X connect 65 1 63 1;
#X connect 66 0 71 3;
#X connect 67 0 71 0;
#X connect 68 0 69 0;
#X connect 69 0 70 0;
#X connect 70 0 46 0;
