#N canvas 10 27 937 1003 12;
#X msg 4 -131 \; pd dsp \$1;
#X obj 4 -158 tgl 19 0 empty empty empty 17 7 0 10 #dfdfdf #000000 #000000 0 1;
#X text 29 -159 DSP On/Off;
#X obj 3 -11 cnv 20 142 150 empty empty Parametros: 20 12 0 12 #e3c6ff #404040 0;
#X text 8 10 - grain-dur;
#X text 6 47 - grain-density;
#X text 4 85 - grain-startpont;
#X text 4 102 - grain-offset?;
#X text 7 30 - grain-dur-mod;
#X text 5 66 - grain-pitch-ratio;
#X text 4 118 - sample-speed;
#N canvas 10 27 937 1003 refes 0;
#X obj 27 389 pdcontrol;
#X msg 32 225 browse http://www.pd-tutorial.com/english/ch03s04.html;
#X msg 44 255 browse http://www.pd-tutorial.com/english/ch03s07.html;
#X obj 109 128 bng 20 250 50 0 empty empty http://www.pd-tutorial.com/english/ch03s04.html 25 15 1 12 #e3c6ff #000000 #000000;
#X obj 109 153 bng 20 250 50 0 empty empty http://www.pd-tutorial.com/english/ch03s07.html 25 15 1 12 #e3c6ff #000000 #000000;
#X msg 52 288 browse http://granularsynthesis.com/hthesis/hthesis.html;
#X obj 109 179 bng 20 250 50 0 empty empty http://granularsynthesis.com/hthesis/hthesis.html 25 15 1 12 #e3c6ff #000000 #000000;
#X connect 1 0 0 0;
#X connect 2 0 0 0;
#X connect 3 0 1 0;
#X connect 4 0 2 0;
#X connect 5 0 0 0;
#X connect 6 0 5 0;
#X coords 0 -1 1 1 323 110 1 100 100;
#X restore 91 -131 pd refes;
#X obj 238 255 tgl 20 0 empty empty "off"/on 0 -10 0 12 #e3c6ff #000000 #000000 0 1;
#X obj 370 154 hsl 50 20 -1 1 0 0 empty empty sample-speed -2 -10 0 12 #e3c6ff #000000 #000000 0 1;
#X obj 499 188 hsl 50 20 0 1 0 0 empty empty grain-startpoint -2 -10 0 12 #e3c6ff #000000 #000000 0 1;
#X obj 718 344 hsl 50 20 -1 1 0 0 empty empty grain-dur-mod -2 -10 0 12 #e3c6ff #000000 #000000 0 1;
#X obj 303 216 hradio 20 1 0 2 empty empty sampler/granulator 0 -10 0 12 #e3c6ff #000000 #000000 0;
#X obj 435 75 hsl 50 20 -1 1 0 0 empty empty grain-pitch-ratio -2 -10 0 12 #e3c6ff #000000 #000000 0 1;
#X msg 623 198 3;
#X obj 561 241 nbx 5 18 0.1 1e+37 0 0 empty empty grain-density\ (g/s\;\ grains\ per\ second) 0 -10 0 12 #e3c6ff #000000 #000000 0 256;
#X msg 174 195 1;
#X msg 507 78 0;
#X msg 773 344 0;
#X msg 323 65 0;
#X obj 174 23 t b b b b b, f 86;
#X obj 4 -57 s \$0-init;
#X obj 4 -85 loadbang;
#X obj 174 -11 r \$0-init;
#X obj 174 409 output~;
#X obj 66 -83 bng 20 250 50 0 empty empty empty 0 -10 0 12 #fcfcfc #000000 #000000;
#X obj 147 267 openpanel;
#X obj 112 219 bng 20 250 50 0 empty empty empty 0 -10 0 12 #fcfcfc #000000 #000000;
#X obj 174 364 clone stream 2, f 65;
#X obj 427 -96 cnv 20 280 30 empty empty FAIL 5 12 0 12 #ffc7c6 #404040 0;
#X obj 426 -58 cnv 20 450 30 empty empty DONE 5 12 0 12 #c6ffc7 #404040 0;
#X text 463 -91 [Mandar los inputs como una lista;
#X text 462 -53 [Que puedas elegir entre this/all y especificar que stream;
#X obj 427 -136 cnv 20 280 30 empty empty TODO 5 12 0 12 #ffe3c6 #404040 0;
#X text 463 -131 [Añadir refes;
#X obj 120 520 hradio 20 1 0 2 empty empty empty 0 -10 0 12 #fcfcfc #000000 #000000 0;
#X obj 215 527 hradio 20 1 0 9 empty empty empty 0 -10 0 12 #fcfcfc #000000 #000000 0;
#X obj 94 655 s to-stream-input-0;
#X obj 237 656 s to-stream-input-1;
#X obj 381 655 s to-stream-input-2;
#X obj 524 655 s to-stream-input-3;
#X obj 92 686 s to-stream-input-4;
#X obj 235 687 s to-stream-input-5;
#X obj 379 686 s to-stream-input-6;
#X obj 522 686 s to-stream-input-7;
#X obj 94 636 route 0 1 2 3 4 5 6 7 8;
#X obj 310 635 s to-stream-inputs;
#X obj 147 292 stream-input 0;
#X obj 238 280 stream-input 1;
#X obj 303 241 stream-input 2;
#X obj 367 179 stream-input 3;
#X obj 432 100 stream-input 4;
#X obj 496 213 stream-input 5;
#X obj 561 264 stream-input 6;
#X obj 715 369 stream-input 7;
#X obj 120 558 list prepend 8;
#X msg 79 521 all;
#X connect 1 0 0 0;
#X connect 12 0 52 0;
#X connect 13 0 54 0;
#X connect 14 0 56 0;
#X connect 15 0 58 0;
#X connect 16 0 53 0;
#X connect 17 0 55 0;
#X connect 18 0 19 0;
#X connect 19 0 57 0;
#X connect 20 0 12 0;
#X connect 21 0 17 0;
#X connect 22 0 15 0;
#X connect 23 0 13 0;
#X connect 24 0 20 0;
#X connect 24 1 23 0;
#X connect 24 2 21 0;
#X connect 24 3 18 0;
#X connect 24 4 22 0;
#X connect 26 0 25 0;
#X connect 27 0 24 0;
#X connect 29 0 25 0;
#X connect 30 0 51 0;
#X connect 31 0 30 0;
#X connect 32 0 28 0;
#X connect 32 0 28 1;
#X connect 39 0 59 0;
#X connect 40 0 59 1;
#X connect 49 0 41 0;
#X connect 49 1 42 0;
#X connect 49 2 43 0;
#X connect 49 3 44 0;
#X connect 49 4 45 0;
#X connect 49 5 46 0;
#X connect 49 6 47 0;
#X connect 49 7 48 0;
#X connect 49 8 50 0;
#X connect 51 0 32 0;
#X connect 52 0 32 1;
#X connect 53 0 32 2;
#X connect 54 0 32 3;
#X connect 55 0 32 4;
#X connect 56 0 32 5;
#X connect 57 0 32 6;
#X connect 58 0 32 7;
#X connect 59 0 49 0;
#X connect 60 0 59 0;
