#N canvas 10 27 937 1003 12;
#X obj 358 -11 soundfiler, f 18;
#X obj 91 46 hsl 170 20 0 1 0 0 empty empty empty -2 -10 0 12 #fcfcfc #000000 #000000 0 1;
#X obj 91 75 hsl 170 20 0 1 0 0 empty empty empty -2 -10 0 12 #fcfcfc #000000 #000000 0 1;
#X msg 358 -70 read -resize ./sample.wav \$1-sample;
#X obj 358 -100 r main-id;
#X obj -41 66 s sample-start;
#X msg -48 -140 \; pd dsp \$1;
#X obj -48 -167 tgl 19 0 empty empty empty 17 7 0 10 #dfdfdf #000000 #000000 0 1;
#X text -23 -168 DSP On/Off;
#N canvas 10 27 937 1003 (subpatch) 0;
#X array \$0-sample 529200 float 2;
#X coords 0 1 529200 -1 200 140 1 0 0;
#X restore 87 -99 graph;
#X obj -48 -16 \$0;
#X obj -48 -94 loadbang;
#X msg 12 -36 bang;
#X floatatom -48 9 5 0 0 0 - - - 0;
#X obj -48 33 s main-id;
#X obj -48 -72 t b b, f 9;
#X obj 12 -11 s init;
#X obj 716 500 snapshot~;
#X obj 716 443 bng 20 250 50 0 empty empty empty 0 -10 0 12 #fcfcfc #000000 #000000;
#X obj 716 348 tgl 20 0 empty empty empty 0 -10 0 12 #fcfcfc #000000 #000000 0 1;
#X text 754 283 grain density;
#X obj 716 418 metro;
#X obj 748 369 /;
#X floatatom 748 394 5 0 0 0 - - - 0;
#X floatatom 748 313 5 0 0 0 gs/s\ (grains\ per\ second) - - 0;
#X msg 748 344 1000 \$1;
#X obj 358 14 t f f;
#X obj 390 41 pack f f;
#X obj 390 121 /;
#X msg 390 96 \$1 \$2;
#X obj 390 146 * 1000;
#X obj -43 658 output~;
#X obj 481 21 t f f;
#X obj 513 53 * 0.001;
#X obj 513 78 s ms-to-samps;
#X obj 390 171 s sample-dur;
#X obj 358 214 s sample-size;
#X obj 374 320 r sample-dur;
#X msg 374 345 set \$1;
#X msg 374 370 12000;
#X obj -43 393 *~;
#X obj -10 393 r sample-size;
#X obj -43 418 snapshot~;
#X obj 27 418 metro;
#X obj 89 393 tgl 20 0 empty empty empty 0 -10 0 12 #fcfcfc #000000 #000000 0 1;
#X floatatom 69 419 5 0 0 0 - - - 0;
#X floatatom -43 443 5 0 0 0 - - - 0;
#X obj -43 368 phasor~;
#X obj 9 292 hsl 50 20 0.5 2 0 0 empty empty empty -2 -10 0 12 #fcfcfc #000000 #000000 0 1;
#X obj -43 467 +;
#X obj -1 444 r grain-startpoint;
#X msg -43 492 next \$1;
#X obj 374 395 s grain-dur;
#X obj -43 199 s grain-dur;
#X floatatom -43 154 5 0 0 0 - - - 0;
#X obj 390 69 t l l, f 10;
#X msg 457 97 \$2 \$1;
#X obj 457 122 /;
#X obj 457 147 s sample-playback-speed;
#X obj -43 262 r sample-playback-speed;
#X obj -43 337 * 1;
#X floatatom -43 287 5 0 0 0 - - - 0;
#X msg 179 323 0;
#X msg 97 288 bang;
#X msg 74 317 1;
#X obj 6 317 t b f;
#X obj -43 537 clone grain-reader4-sin-hanning 16;
#X connect 0 0 26 0;
#X connect 0 1 32 0;
#X connect 1 0 5 0;
#X connect 3 0 0 0;
#X connect 4 0 3 0;
#X connect 7 0 6 0;
#X connect 10 0 13 0;
#X connect 11 0 15 0;
#X connect 12 0 10 0;
#X connect 12 0 16 0;
#X connect 13 0 14 0;
#X connect 15 0 10 0;
#X connect 15 1 12 0;
#X connect 18 0 17 0;
#X connect 19 0 21 0;
#X connect 21 0 18 0;
#X connect 22 0 23 0;
#X connect 23 0 21 1;
#X connect 24 0 25 0;
#X connect 25 0 22 0;
#X connect 26 0 36 0;
#X connect 26 1 27 0;
#X connect 27 0 55 0;
#X connect 28 0 30 0;
#X connect 29 0 28 0;
#X connect 30 0 35 0;
#X connect 32 0 27 1;
#X connect 32 1 33 0;
#X connect 33 0 34 0;
#X connect 37 0 38 0;
#X connect 38 0 39 0;
#X connect 39 0 52 0;
#X connect 40 0 42 0;
#X connect 41 0 40 1;
#X connect 42 0 46 0;
#X connect 43 0 42 0;
#X connect 44 0 43 0;
#X connect 45 0 43 1;
#X connect 46 0 49 0;
#X connect 47 0 40 0;
#X connect 48 0 65 0;
#X connect 49 0 51 0;
#X connect 50 0 49 1;
#X connect 51 0 66 0;
#X connect 54 0 53 0;
#X connect 55 0 29 0;
#X connect 55 1 56 0;
#X connect 56 0 57 0;
#X connect 57 0 58 0;
#X connect 59 0 61 0;
#X connect 60 0 47 0;
#X connect 61 0 60 0;
#X connect 62 0 47 0;
#X connect 62 0 47 1;
#X connect 62 0 44 0;
#X connect 63 0 61 0;
#X connect 63 0 44 0;
#X connect 64 0 48 0;
#X connect 65 0 60 0;
#X connect 65 1 60 1;
#X connect 66 0 31 0;
#X connect 66 0 31 1;
