#N canvas 10 27 937 1003 12;
#X obj 571 176 soundfiler, f 18;
#X obj 571 307 phasor~;
#X obj 571 410 *~, f 12;
#X obj 571 201 t f f, f 12;
#X obj 416 160 *;
#X obj 416 44 vsl 20 100 0.5 2 1 0 empty empty speed\ (pitch?) 0 -9 0 12 #fcfcfc #000000 #000000 0 1;
#X msg 361 5 1;
#X obj 91 46 hsl 170 20 0 1 0 0 empty empty empty -2 -10 0 12 #fcfcfc #000000 #000000 0 1;
#X obj 571 359 *~ 1;
#X obj 571 385 +~ 0;
#X obj 88 141 -;
#X obj 91 75 hsl 170 20 0 1 0 0 empty empty empty -2 -10 0 12 #fcfcfc #000000 #000000 0 1;
#X floatatom 88 186 5 0 0 0 - - - 0;
#X obj 577 474 expr 1 / $f1;
#X obj 416 234 *;
#X obj 127 112 t b f;
#X obj 416 187 t b f;
#X obj 571 245 expr $f2 / $f1 \;, f 18;
#X msg 571 117 read -resize ./sample.wav \$1-sample;
#X obj 571 87 r main-id;
#X obj -41 66 s sample-start;
#X obj 677 365 r sample-start;
#X obj 88 210 s sample-dur-coefficient;
#X obj 577 435 r sample-dur-coefficient;
#X obj 88 164 t f f, f 35;
#X obj 330 201 < 0;
#X msg 330 251 1 \$1;
#X obj 330 276 -;
#X obj 330 226 * 2;
#X floatatom 286 274 5 0 0 0 - - - 0;
#X obj 416 297 * 1;
#X msg 361 31 0;
#X msg -48 -140 \; pd dsp \$1;
#X obj -48 -167 tgl 19 0 empty empty empty 17 7 0 10 #dfdfdf #000000 #000000 0 1;
#X text -23 -168 DSP On/Off;
#N canvas 10 27 937 1003 (subpatch) 0;
#X array \$0-sample 529200 float 2;
#X coords 0 1 529200 -1 200 140 1 0 0;
#X restore 87 -99 graph;
#X obj -48 -16 \$0;
#X obj -48 -94 loadbang;
#X msg 12 -36 bang;
#X floatatom -48 9 5 0 0 0 - - - 0;
#X obj -48 33 s main-id;
#X obj -48 -72 t b b, f 9;
#X obj 12 -11 s init;
#X obj 361 -28 r init;
#X text 175 113 grain-duration?;
#N canvas 10 27 937 1003 grain-density 0;
#X obj 274 595 snapshot~;
#X obj 362 541 bng 20 250 50 0 empty empty empty 0 -10 0 12 #fcfcfc #000000 #000000;
#X obj 362 446 tgl 20 0 empty empty empty 0 -10 0 12 #fcfcfc #000000 #000000 0 1;
#X text 400 381 grain density;
#X obj 362 516 metro;
#X obj 394 467 /;
#X floatatom 394 492 5 0 0 0 - - - 0;
#X floatatom 394 411 5 0 0 0 gs/s\ (grains\ per\ second) - - 0;
#X msg 394 442 1000 \$1;
#X obj 274 620 outlet;
#X obj 275 277 inlet;
#X text 322 276 phasor;
#X connect 0 0 9 0;
#X connect 1 0 0 0;
#X connect 2 0 4 0;
#X connect 4 0 1 0;
#X connect 5 0 6 0;
#X connect 6 0 4 1;
#X connect 7 0 8 0;
#X connect 8 0 5 0;
#X connect 10 0 0 0;
#X restore -50 293 pd grain-density with metro;
#X text 705 245 sample-rate / sample-size;
#X obj 210 431 tgl 20 0 empty empty empty 0 -10 0 12 #fcfcfc #000000 #000000 0 1;
#X text 248 336 grain density;
#X obj 210 501 metro;
#X obj 242 422 /;
#X floatatom 242 447 5 0 0 0 - - - 0;
#X floatatom 242 366 5 0 0 0 gs/s\ (grains\ per\ second) - - 0;
#X msg 242 397 1000 \$1;
#X obj 242 474 t f f;
#X obj 210 551 f;
#X obj 210 601 i;
#X obj 238 601 + 1;
#X obj 210 656 pack f f, f 9;
#X listbox 210 681 20 0 0 0 - - - 0;
#X obj 210 576 t b f, f 9;
#X text 247 628 max number of grains;
#X obj 740 544 vsl 20 50 0 1 0 0 empty empty empty 0 -9 0 12 #fcfcfc #000000 #000000 0 1;
#X msg 740 602 all \$1;
#X obj 572 628 clone grain-reader3 16;
#X obj 740 487 r init;
#X msg 740 512 0.2;
#X floatatom 669 543 5 0 0 0 - - - 0;
#X msg 669 567 all \$1;
#X obj 210 629 % 16;
#X connect 0 0 3 0;
#X connect 0 1 17 1;
#X connect 1 0 8 0;
#X connect 2 0 64 0;
#X connect 2 0 64 1;
#X connect 3 0 17 0;
#X connect 3 1 2 1;
#X connect 4 0 16 0;
#X connect 5 0 4 0;
#X connect 6 0 5 0;
#X connect 7 0 20 0;
#X connect 7 0 15 0;
#X connect 8 0 9 0;
#X connect 9 0 2 0;
#X connect 10 0 24 0;
#X connect 11 0 10 0;
#X connect 12 0 22 0;
#X connect 13 0 14 0;
#X connect 14 0 30 0;
#X connect 15 0 10 0;
#X connect 15 1 10 1;
#X connect 16 0 14 0;
#X connect 16 1 14 1;
#X connect 17 0 1 0;
#X connect 17 0 4 1;
#X connect 18 0 0 0;
#X connect 19 0 18 0;
#X connect 21 0 9 1;
#X connect 23 0 13 0;
#X connect 23 0 8 1;
#X connect 24 0 12 0;
#X connect 24 1 25 0;
#X connect 25 0 28 0;
#X connect 26 0 27 0;
#X connect 27 0 29 0;
#X connect 27 0 30 1;
#X connect 28 0 26 0;
#X connect 30 0 1 0;
#X connect 31 0 5 0;
#X connect 33 0 32 0;
#X connect 36 0 39 0;
#X connect 37 0 41 0;
#X connect 38 0 36 0;
#X connect 38 0 42 0;
#X connect 39 0 40 0;
#X connect 41 0 36 0;
#X connect 41 1 38 0;
#X connect 43 0 6 0;
#X connect 47 0 49 0;
#X connect 49 0 55 0;
#X connect 50 0 51 0;
#X connect 51 0 54 0;
#X connect 52 0 53 0;
#X connect 53 0 50 0;
#X connect 54 0 49 1;
#X connect 54 1 55 1;
#X connect 55 0 60 0;
#X connect 56 0 57 0;
#X connect 56 0 69 0;
#X connect 57 0 56 1;
#X connect 58 0 59 0;
#X connect 58 0 64 2;
#X connect 60 0 56 0;
#X connect 60 1 58 1;
#X connect 62 0 63 0;
#X connect 63 0 64 4;
#X connect 65 0 66 0;
#X connect 66 0 62 0;
#X connect 67 0 68 0;
#X connect 68 0 64 3;
#X connect 69 0 58 0;
