#N canvas 965 27 937 160 12;
#X obj 84 353 * 0.01;
#X obj 73 307 random 100;
#X msg 73 283 bang;
#X obj 61 115 route manual random;
#X msg 61 170 1;
#X obj 73 258 spigot 0;
#X obj 8 258 spigot 1;
#X obj 61 195 t f b;
#X msg 126 229 0;
#X msg 126 170 1;
#X obj 126 195 t f b;
#X msg 61 229 0;
#X obj 8 135 t f b, f 8;
#X obj 126 143 t b f, f 6;
#X obj 8 373 outlet;
#X obj 61 63 inlet;
#X obj 73 10 inlet;
#X obj 84 327 moses 100, f 12;
#X connect 0 0 14 0;
#X connect 1 0 17 0;
#X connect 2 0 1 0;
#X connect 3 0 12 0;
#X connect 3 1 13 0;
#X connect 4 0 7 0;
#X connect 5 0 2 0;
#X connect 6 0 14 0;
#X connect 7 0 6 1;
#X connect 7 1 8 0;
#X connect 8 0 5 1;
#X connect 9 0 10 0;
#X connect 10 0 5 1;
#X connect 10 1 11 0;
#X connect 11 0 6 1;
#X connect 12 0 6 0;
#X connect 12 1 4 0;
#X connect 13 0 9 0;
#X connect 13 1 17 1;
#X connect 15 0 3 0;
#X connect 16 0 5 0;
#X connect 17 0 0 0;
