#N canvas 10 27 937 1003 12;
#X obj 109 131 tgl 20 0 empty empty empty 0 -10 0 12 #c6ffc7 #000000 #000000 0 1;
#X obj 129 131 tgl 20 0 empty empty empty 0 -10 0 12 #c6ffc7 #000000 #000000 0 1;
#X obj 149 131 tgl 20 0 empty empty empty 0 -10 0 12 #c6ffc7 #000000 #000000 0 1;
#X obj 169 131 tgl 20 0 empty empty empty 0 -10 0 12 #e3c6ff #000000 #000000 0 1;
#X obj 189 131 tgl 20 0 empty empty empty 0 -10 0 12 #e3c6ff #000000 #000000 0 1;
#X obj 209 131 tgl 20 0 empty empty empty 0 -10 0 12 #e3c6ff #000000 #000000 0 1;
#X obj 229 131 tgl 20 0 empty empty empty 0 -10 0 12 #e3c6ff #000000 #000000 0 1;
#X obj 249 131 tgl 20 0 empty empty empty 0 -10 0 12 #e3c6ff #000000 #000000 0 1;
#X obj 56 404 spigot 0;
#X obj 76 434 spigot 0;
#X obj 96 464 spigot 0;
#X obj 116 494 spigot 0;
#X obj 136 524 spigot 0;
#X obj 156 554 spigot 0;
#X obj 176 584 spigot 0;
#X obj 196 614 spigot 0;
#X obj 56 554 outlet;
#X obj 76 584 outlet;
#X obj 96 614 outlet;
#X obj 116 644 outlet;
#X obj 136 674 outlet;
#X obj 156 704 outlet;
#X obj 176 734 outlet;
#X obj 196 764 outlet;
#X obj 56 254 inlet;
#X obj 76 284 inlet;
#X obj 96 314 inlet;
#X obj 116 344 inlet;
#X obj 136 374 inlet;
#X obj 156 404 inlet;
#X obj 176 434 inlet;
#X obj 196 464 inlet;
#X obj 249 108 tgl 20 0 empty empty all -25 10 0 12 #c6ffc7 #000000 #000000 0 1;
#X obj 20 330 inlet;
#X connect 0 0 8 1;
#X connect 1 0 9 1;
#X connect 2 0 10 1;
#X connect 3 0 11 1;
#X connect 4 0 12 1;
#X connect 5 0 13 1;
#X connect 6 0 14 1;
#X connect 7 0 15 1;
#X connect 8 0 16 0;
#X connect 9 0 17 0;
#X connect 10 0 18 0;
#X connect 11 0 19 0;
#X connect 12 0 20 0;
#X connect 13 0 21 0;
#X connect 14 0 22 0;
#X connect 15 0 23 0;
#X connect 24 0 8 0;
#X connect 25 0 9 0;
#X connect 26 0 10 0;
#X connect 27 0 11 0;
#X connect 28 0 12 0;
#X connect 29 0 13 0;
#X connect 30 0 14 0;
#X connect 31 0 15 0;
#X connect 32 0 1 0;
#X connect 32 0 7 0;
#X connect 32 0 6 0;
#X connect 32 0 5 0;
#X connect 32 0 4 0;
#X connect 32 0 3 0;
#X connect 32 0 2 0;
#X connect 32 0 0 0;
#X connect 33 0 8 0;
#X connect 33 0 13 0;
#X connect 33 0 12 0;
#X connect 33 0 11 0;
#X connect 33 0 10 0;
#X connect 33 0 9 0;
#X connect 33 0 15 0;
#X connect 33 0 14 0;
#X coords 0 -1 1 1 180 60 1 100 100;
