#N canvas 10 27 937 1003 12;
#X obj 14 17 inlet;
#X obj 14 219 outlet;
#X obj 105 17 r to-stream-input-\$1;
#X obj 14 154 list prepend 0, f 18;
#X obj 105 42 t b a;
#X obj 14 187 list trim;
#X connect 0 0 3 0;
#X connect 2 0 4 0;
#X connect 3 0 5 0;
#X connect 4 0 3 0;
#X connect 4 1 3 1;
#X connect 5 0 1 0;
