#N canvas 10 27 937 1003 12;
#X msg -135 307 manual \$1;
#X msg -47 345 random \$1;
#X obj -177 415 list append;
#X obj -114 364 t b a;
#X obj -177 440 list prepend 0;
#X obj 109 120 tgl 20 0 empty empty random? 0 -10 0 12 #c6ffc7 #000000 #000000 0 1;
#X obj -82 136 sel 0 1;
#X msg -82 164 1;
#X obj -82 189 t f b;
#X msg 6 175 1;
#X msg 6 229 0;
#X obj 6 202 t f b;
#X msg -59 222 0;
#X obj -135 242 spigot 1;
#X obj -47 274 spigot 0;
#X obj 109 395 sel -1;
#X msg 109 420 all;
#X obj -135 55 inlet;
#X obj -177 465 outlet;
#X obj -47 310 * 100;
#X obj 109 159 nbx 5 18 -1 1e+37 0 0 empty empty stream(-1=all) 0 -10 0 12 #c6ffc7 #000000 #000000 0 256;
#X connect 0 0 3 0;
#X connect 1 0 3 0;
#X connect 2 0 4 0;
#X connect 3 0 2 0;
#X connect 3 1 2 1;
#X connect 4 0 18 0;
#X connect 5 0 6 0;
#X connect 6 0 7 0;
#X connect 6 1 9 0;
#X connect 7 0 8 0;
#X connect 8 0 13 1;
#X connect 8 1 10 0;
#X connect 9 0 11 0;
#X connect 10 0 14 1;
#X connect 11 0 14 1;
#X connect 11 1 12 0;
#X connect 12 0 13 1;
#X connect 13 0 0 0;
#X connect 14 0 19 0;
#X connect 15 0 16 0;
#X connect 15 1 4 1;
#X connect 16 0 4 1;
#X connect 17 0 13 0;
#X connect 17 0 14 0;
#X connect 19 0 1 0;
#X connect 20 0 15 0;
#X coords 0 -1 1 1 110 85 2 100 100;
