#N canvas 10 27 937 1003 12;
#X obj 14 17 inlet;
#X obj 14 139 outlet;
#X obj 109 17 r to-stream-input-\$1;
#X obj 133 54 r to-stream-inputs;
#X obj 14 74 list prepend 0;
#X obj 14 107 list trim;
#X connect 0 0 4 0;
#X connect 2 0 4 1;
#X connect 3 0 4 1;
#X connect 4 0 5 0;
#X connect 5 0 1 0;
